<?xml version="1.0" encoding="UTF-8"?>
<svg id="Layer_2" data-name="Layer 2" xmlns="http://www.w3.org/2000/svg" viewBox="0 0 631.42 198.41">
  <defs>
    <style>
      .cls-1 {
        fill: #fff;
      }

      .cls-2 {
        fill: #231f20;
      }
    </style>
  </defs>
  <g id="Logo">
    <g id="B_W" data-name="B/W">
      <rect class="cls-1" width="631.42" height="198.41"/>
      <g id="Letters">
        <g id="V">
          <polygon class="cls-2" points="527.22 124.2 545.63 124.2 576.21 55.2 556.51 55.2 527.22 124.2"/>
          <polygon class="cls-2" points="527.25 77.56 516.25 99.91 496.31 55.2 517.93 55.2 527.25 77.56"/>
        </g>
        <g id="E">
          <rect class="cls-2" x="433" y="55.2" width="55" height="15"/>
          <rect class="cls-2" x="433" y="82.2" width="55" height="15"/>
          <rect class="cls-2" x="433" y="109.2" width="55" height="15"/>
        </g>
        <path id="D" class="cls-2" d="m345,90.2h21v19h16.65s16.39-2.17,16.39-19.47-14.09-19.53-14.09-19.53h-39.95v-15h36.88s35.44,1.47,35.44,35.44-36.16,34.56-36.16,34.56h-36.16v-35Z"/>
        <g id="i">
          <rect class="cls-2" x="279" y="70.2" width="19" height="55"/>
          <circle class="cls-2" cx="289" cy="55.2" r="11"/>
        </g>
        <path id="p" class="cls-2" d="m237.62,70.19c-10.76,0-15.62,5.51-15.62,5.51v-5.49h-17v73h18v-26.71c.28,0,3.61,8.35,16.37,8.35s24.28-9.1,24.28-29.38-15.27-25.28-26.03-25.28Zm-3.5,39.41c-6.91,0-9.77-4.89-9.77-12.64s2.86-12.64,9.77-12.64,11.46,4.89,11.46,12.64-4.54,12.64-11.46,12.64Z"/>
        <path id="o" class="cls-2" d="m160.1,69.07c-16.55,0-29.97,12.48-29.97,27.89s13.42,27.89,29.97,27.89,29.97-12.48,29.97-27.89-13.42-27.89-29.97-27.89Zm0,40.53c-6.98,0-12.64-5.66-12.64-12.64s5.66-12.64,12.64-12.64,12.64,5.66,12.64,12.64-5.66,12.64-12.64,12.64Z"/>
        <g id="K">
          <polygon class="cls-2" points="55 55.2 55 83.61 75 63.67 75 55.2 55 55.2"/>
          <polygon class="cls-2" points="124.54 55.88 101.54 55.36 55 105.14 55 125.2 75 125.2 75 105.27 82 98.29 103.1 125.2 124.54 125.2 94.46 85.87 124.54 55.88"/>
        </g>
      </g>
    </g>
  </g>
</svg>